<?xml version="1.0"?>
<svg xmlns="http://www.w3.org/2000/svg" xmlns:xlink="http://www.w3.org/1999/xlink" version="1.1" id="Capa_1" x="0px" y="0px" viewBox="0 0 512 512" style="enable-background:new 0 0 512 512;" xml:space="preserve" width="512px" height="512px"><g><g>
	<g>
		<path d="M406,31c-16.569,0-30,13.431-30,30v390c0,16.567,13.431,30,30,30c16.569,0,30-13.433,30-30V61    C436,44.431,422.569,31,406,31z" data-original="#000000" class="active-path" data-old_color="#000000" fill="#1F9383"/>
	</g>
</g><g>
	<g>
		<path d="M316,31c-16.569,0-30,13.431-30,30v390c0,16.567,13.431,30,30,30c16.569,0,30-13.433,30-30V61    C346,44.431,332.569,31,316,31z" data-original="#000000" class="active-path" data-old_color="#000000" fill="#1F9383"/>
	</g>
</g><g>
	<g>
		<path d="M226,31c-16.569,0-30,13.431-30,30v390c0,16.567,13.431,30,30,30c16.569,0,30-13.433,30-30V61    C256,44.431,242.569,31,226,31z" data-original="#000000" class="active-path" data-old_color="#000000" fill="#1F9383"/>
	</g>
</g><g>
	<g>
		<path d="M136,31c-16.569,0-30,13.431-30,30v390c0,16.567,13.431,30,30,30c16.569,0,30-13.433,30-30V61    C166,44.431,152.569,31,136,31z" data-original="#000000" class="active-path" data-old_color="#000000" fill="#1F9383"/>
	</g>
</g><g>
	<g>
		<path d="M497,91h-31v90h31c8.291,0,15-6.709,15-15v-60C512,97.709,505.291,91,497,91z" data-original="#000000" class="active-path" data-old_color="#000000" fill="#1F9383"/>
	</g>
</g><g>
	<g>
		<path d="M497,301h-31v90h31c8.291,0,15-6.709,15-15v-60C512,307.709,505.291,301,497,301z" data-original="#000000" class="active-path" data-old_color="#000000" fill="#1F9383"/>
	</g>
</g><g>
	<g>
		<path d="M30,301v-15c0-8.291-6.709-15-15-15s-15,6.709-15,15v120c0,8.291,6.709,15,15,15s15-6.709,15-15v-15h46v-90H30z" data-original="#000000" class="active-path" data-old_color="#000000" fill="#1F9383"/>
	</g>
</g><g>
	<g>
		<path d="M30,91V76c0-8.291-6.709-15-15-15S0,67.709,0,76v120c0,8.291,6.709,15,15,15s15-6.709,15-15v-15h46V91H30z" data-original="#000000" class="active-path" data-old_color="#000000" fill="#1F9383"/>
	</g>
</g></g> </svg>
